<svg width="375" height="367" viewBox="0 0 375 367" fill="none" xmlns="http://www.w3.org/2000/svg">
<path d="M106.805 16V6.016H103.605V4.8H111.381V6.016H108.053V16H106.805ZM113.012 16V4.16H114.212V9.472L113.972 9.712C114.089 9.27467 114.308 8.89067 114.628 8.56C114.948 8.21867 115.321 7.952 115.748 7.76C116.185 7.568 116.628 7.472 117.076 7.472C117.716 7.472 118.249 7.59467 118.676 7.84C119.102 8.08533 119.417 8.464 119.62 8.976C119.833 9.488 119.94 10.1387 119.94 10.928V16H118.724V10.992C118.724 10.4373 118.649 9.984 118.5 9.632C118.361 9.26933 118.142 9.00267 117.844 8.832C117.545 8.66133 117.172 8.58133 116.724 8.592C116.372 8.592 116.041 8.656 115.732 8.784C115.422 8.90133 115.156 9.06667 114.932 9.28C114.708 9.49333 114.532 9.73867 114.404 10.016C114.276 10.2933 114.212 10.592 114.212 10.912V16H113.62C113.545 16 113.46 16 113.364 16C113.268 16 113.15 16 113.012 16ZM125.911 16.16C125.079 16.16 124.337 15.9787 123.687 15.616C123.047 15.2533 122.545 14.7467 122.183 14.096C121.82 13.4453 121.639 12.6987 121.639 11.856C121.639 11.2053 121.74 10.6187 121.943 10.096C122.145 9.56267 122.428 9.09867 122.791 8.704C123.164 8.30933 123.607 8.00533 124.119 7.792C124.631 7.568 125.185 7.456 125.783 7.456C126.348 7.456 126.86 7.55733 127.319 7.76C127.788 7.96267 128.188 8.24533 128.519 8.608C128.86 8.96 129.116 9.38133 129.286 9.872C129.457 10.3627 129.532 10.9013 129.51 11.488L129.495 12.048H122.535L122.359 11.04H128.583L128.295 11.312V10.928C128.273 10.544 128.161 10.176 127.959 9.824C127.756 9.46133 127.468 9.168 127.095 8.944C126.732 8.72 126.295 8.608 125.783 8.608C125.185 8.608 124.668 8.73067 124.231 8.976C123.793 9.21067 123.457 9.56267 123.223 10.032C122.988 10.5013 122.871 11.0827 122.871 11.776C122.871 12.4373 122.999 13.0133 123.255 13.504C123.511 13.984 123.873 14.3573 124.343 14.624C124.823 14.8907 125.399 15.024 126.071 15.024C126.465 15.024 126.855 14.96 127.239 14.832C127.633 14.6933 128.065 14.4267 128.535 14.032L129.159 14.896C128.913 15.1413 128.62 15.36 128.279 15.552C127.937 15.7333 127.564 15.8827 127.159 16C126.753 16.1067 126.337 16.16 125.911 16.16ZM131.215 16V7.648H132.415L132.447 9.872L132.319 9.568C132.436 9.19467 132.623 8.848 132.879 8.528C133.146 8.208 133.46 7.952 133.823 7.76C134.186 7.568 134.586 7.472 135.023 7.472C135.204 7.472 135.375 7.488 135.535 7.52C135.695 7.54133 135.828 7.57333 135.935 7.616L135.599 8.96C135.46 8.896 135.316 8.85333 135.167 8.832C135.028 8.8 134.895 8.784 134.767 8.784C134.404 8.784 134.079 8.848 133.791 8.976C133.503 9.104 133.258 9.28533 133.055 9.52C132.852 9.744 132.698 10.0053 132.591 10.304C132.484 10.6027 132.431 10.9227 132.431 11.264V16H131.215ZM140.504 16.16C139.672 16.16 138.931 15.9787 138.28 15.616C137.64 15.2533 137.139 14.7467 136.776 14.096C136.414 13.4453 136.232 12.6987 136.232 11.856C136.232 11.2053 136.334 10.6187 136.536 10.096C136.739 9.56267 137.022 9.09867 137.384 8.704C137.758 8.30933 138.2 8.00533 138.712 7.792C139.224 7.568 139.779 7.456 140.376 7.456C140.942 7.456 141.454 7.55733 141.912 7.76C142.382 7.96267 142.782 8.24533 143.112 8.608C143.454 8.96 143.71 9.38133 143.88 9.872C144.051 10.3627 144.126 10.9013 144.104 11.488L144.088 12.048H137.128L136.952 11.04H143.176L142.888 11.312V10.928C142.867 10.544 142.755 10.176 142.552 9.824C142.35 9.46133 142.062 9.168 141.688 8.944C141.326 8.72 140.888 8.608 140.376 8.608C139.779 8.608 139.262 8.73067 138.824 8.976C138.387 9.21067 138.051 9.56267 137.816 10.032C137.582 10.5013 137.464 11.0827 137.464 11.776C137.464 12.4373 137.592 13.0133 137.848 13.504C138.104 13.984 138.467 14.3573 138.936 14.624C139.416 14.8907 139.992 15.024 140.664 15.024C141.059 15.024 141.448 14.96 141.832 14.832C142.227 14.6933 142.659 14.4267 143.128 14.032L143.752 14.896C143.507 15.1413 143.214 15.36 142.872 15.552C142.531 15.7333 142.158 15.8827 141.752 16C141.347 16.1067 140.931 16.16 140.504 16.16ZM153.557 16.16C152.832 16.16 152.176 15.9733 151.589 15.6C151.002 15.216 150.538 14.6987 150.197 14.048C149.856 13.3867 149.685 12.64 149.685 11.808C149.685 10.9653 149.861 10.2187 150.213 9.568C150.565 8.91733 151.034 8.40533 151.621 8.032C152.218 7.65867 152.885 7.472 153.621 7.472C154.058 7.472 154.464 7.536 154.837 7.664C155.21 7.792 155.541 7.97333 155.829 8.208C156.128 8.432 156.373 8.69867 156.565 9.008C156.768 9.30667 156.906 9.632 156.981 9.984L156.629 9.808L156.677 7.648H157.877V16H156.661V13.952L156.981 13.744C156.906 14.064 156.762 14.3733 156.549 14.672C156.336 14.96 156.074 15.216 155.765 15.44C155.466 15.664 155.125 15.84 154.741 15.968C154.368 16.096 153.973 16.16 153.557 16.16ZM153.829 15.008C154.384 15.008 154.88 14.8747 155.317 14.608C155.754 14.3307 156.096 13.952 156.341 13.472C156.597 12.9813 156.725 12.4267 156.725 11.808C156.725 11.1893 156.597 10.64 156.341 10.16C156.096 9.68 155.754 9.30133 155.317 9.024C154.88 8.74667 154.384 8.608 153.829 8.608C153.264 8.608 152.762 8.74667 152.325 9.024C151.898 9.30133 151.557 9.68 151.301 10.16C151.056 10.64 150.933 11.1893 150.933 11.808C150.933 12.416 151.056 12.9653 151.301 13.456C151.546 13.936 151.888 14.3147 152.325 14.592C152.762 14.8693 153.264 15.008 153.829 15.008ZM160.215 16V7.648H161.415L161.447 9.872L161.319 9.568C161.436 9.19467 161.623 8.848 161.879 8.528C162.146 8.208 162.46 7.952 162.823 7.76C163.186 7.568 163.586 7.472 164.023 7.472C164.204 7.472 164.375 7.488 164.535 7.52C164.695 7.54133 164.828 7.57333 164.935 7.616L164.599 8.96C164.46 8.896 164.316 8.85333 164.167 8.832C164.028 8.8 163.895 8.784 163.767 8.784C163.404 8.784 163.079 8.848 162.791 8.976C162.503 9.104 162.258 9.28533 162.055 9.52C161.852 9.744 161.698 10.0053 161.591 10.304C161.484 10.6027 161.431 10.9227 161.431 11.264V16H160.215ZM169.504 16.16C168.672 16.16 167.931 15.9787 167.28 15.616C166.64 15.2533 166.139 14.7467 165.776 14.096C165.414 13.4453 165.232 12.6987 165.232 11.856C165.232 11.2053 165.334 10.6187 165.536 10.096C165.739 9.56267 166.022 9.09867 166.384 8.704C166.758 8.30933 167.2 8.00533 167.712 7.792C168.224 7.568 168.779 7.456 169.376 7.456C169.942 7.456 170.454 7.55733 170.912 7.76C171.382 7.96267 171.782 8.24533 172.112 8.608C172.454 8.96 172.71 9.38133 172.88 9.872C173.051 10.3627 173.126 10.9013 173.104 11.488L173.088 12.048H166.128L165.952 11.04H172.176L171.888 11.312V10.928C171.867 10.544 171.755 10.176 171.552 9.824C171.35 9.46133 171.062 9.168 170.688 8.944C170.326 8.72 169.888 8.608 169.376 8.608C168.779 8.608 168.262 8.73067 167.824 8.976C167.387 9.21067 167.051 9.56267 166.816 10.032C166.582 10.5013 166.464 11.0827 166.464 11.776C166.464 12.4373 166.592 13.0133 166.848 13.504C167.104 13.984 167.467 14.3573 167.936 14.624C168.416 14.8907 168.992 15.024 169.664 15.024C170.059 15.024 170.448 14.96 170.832 14.832C171.227 14.6933 171.659 14.4267 172.128 14.032L172.752 14.896C172.507 15.1413 172.214 15.36 171.872 15.552C171.531 15.7333 171.158 15.8827 170.752 16C170.347 16.1067 169.931 16.16 169.504 16.16ZM179.293 16V7.648H180.477L180.525 9.392L180.333 9.472C180.44 9.10933 180.648 8.77867 180.957 8.48C181.266 8.18133 181.634 7.94133 182.061 7.76C182.498 7.568 182.946 7.472 183.405 7.472C184.024 7.472 184.541 7.59467 184.957 7.84C185.373 8.08533 185.688 8.464 185.901 8.976C186.114 9.488 186.221 10.1387 186.221 10.928V16H185.005V10.992C185.005 10.4373 184.93 9.984 184.781 9.632C184.642 9.26933 184.424 9.00267 184.125 8.832C183.826 8.66133 183.458 8.58133 183.021 8.592C182.658 8.592 182.322 8.656 182.013 8.784C181.704 8.90133 181.437 9.06667 181.213 9.28C180.989 9.49333 180.813 9.73867 180.685 10.016C180.557 10.2933 180.493 10.592 180.493 10.912V16H179.901C179.826 16 179.741 16 179.645 16C179.549 16 179.432 16 179.293 16ZM192.208 16.16C191.376 16.16 190.634 15.9733 189.984 15.6C189.344 15.2267 188.837 14.7093 188.464 14.048C188.101 13.3867 187.92 12.6347 187.92 11.792C187.92 10.96 188.101 10.2187 188.464 9.568C188.837 8.91733 189.344 8.40533 189.984 8.032C190.634 7.65867 191.376 7.472 192.208 7.472C193.029 7.472 193.76 7.65867 194.4 8.032C195.05 8.40533 195.557 8.91733 195.92 9.568C196.293 10.2187 196.48 10.96 196.48 11.792C196.48 12.6347 196.293 13.3867 195.92 14.048C195.557 14.7093 195.05 15.2267 194.4 15.6C193.76 15.9733 193.029 16.16 192.208 16.16ZM192.208 15.024C192.794 15.024 193.317 14.8853 193.776 14.608C194.234 14.32 194.592 13.936 194.848 13.456C195.104 12.9653 195.232 12.4107 195.232 11.792C195.232 11.1733 195.104 10.624 194.848 10.144C194.592 9.664 194.234 9.29067 193.776 9.024C193.317 8.74667 192.794 8.608 192.208 8.608C191.621 8.608 191.093 8.74667 190.624 9.024C190.165 9.29067 189.802 9.66933 189.536 10.16C189.28 10.64 189.157 11.184 189.168 11.792C189.157 12.4107 189.28 12.9653 189.536 13.456C189.802 13.936 190.165 14.32 190.624 14.608C191.093 14.8853 191.621 15.024 192.208 15.024ZM203.867 16V5.456H205.067V16H203.867ZM201.979 8.8V7.648H207.179V8.8H201.979ZM211.838 16.16C211.113 16.16 210.457 15.9733 209.87 15.6C209.284 15.216 208.82 14.6987 208.478 14.048C208.137 13.3867 207.966 12.64 207.966 11.808C207.966 10.9653 208.142 10.2187 208.494 9.568C208.846 8.91733 209.316 8.40533 209.902 8.032C210.5 7.65867 211.166 7.472 211.902 7.472C212.34 7.472 212.745 7.536 213.118 7.664C213.492 7.792 213.822 7.97333 214.11 8.208C214.409 8.432 214.654 8.69867 214.846 9.008C215.049 9.30667 215.188 9.632 215.262 9.984L214.91 9.808L214.958 7.648H216.158V16H214.942V13.952L215.262 13.744C215.188 14.064 215.044 14.3733 214.83 14.672C214.617 14.96 214.356 15.216 214.046 15.44C213.748 15.664 213.406 15.84 213.022 15.968C212.649 16.096 212.254 16.16 211.838 16.16ZM212.11 15.008C212.665 15.008 213.161 14.8747 213.598 14.608C214.036 14.3307 214.377 13.952 214.622 13.472C214.878 12.9813 215.006 12.4267 215.006 11.808C215.006 11.1893 214.878 10.64 214.622 10.16C214.377 9.68 214.036 9.30133 213.598 9.024C213.161 8.74667 212.665 8.608 212.11 8.608C211.545 8.608 211.044 8.74667 210.606 9.024C210.18 9.30133 209.838 9.68 209.582 10.16C209.337 10.64 209.214 11.1893 209.214 11.808C209.214 12.416 209.337 12.9653 209.582 13.456C209.828 13.936 210.169 14.3147 210.606 14.592C211.044 14.8693 211.545 15.008 212.11 15.008ZM221.232 16.16C220.517 16.16 219.877 16.0267 219.312 15.76C218.747 15.4933 218.299 15.1413 217.968 14.704L218.816 13.968C219.125 14.3413 219.488 14.624 219.904 14.816C220.331 15.008 220.805 15.104 221.328 15.104C221.595 15.104 221.835 15.0773 222.048 15.024C222.261 14.96 222.448 14.8693 222.608 14.752C222.768 14.6347 222.891 14.496 222.976 14.336C223.061 14.176 223.104 14 223.104 13.808C223.104 13.456 222.949 13.1627 222.64 12.928C222.501 12.832 222.304 12.736 222.048 12.64C221.792 12.5333 221.483 12.432 221.12 12.336C220.523 12.1653 220.027 11.9947 219.632 11.824C219.237 11.6427 218.928 11.4347 218.704 11.2C218.544 11.008 218.421 10.8 218.336 10.576C218.261 10.352 218.224 10.1067 218.224 9.84C218.224 9.49867 218.293 9.184 218.432 8.896C218.581 8.608 218.784 8.35733 219.04 8.144C219.307 7.92 219.616 7.75467 219.968 7.648C220.331 7.53067 220.72 7.472 221.136 7.472C221.531 7.472 221.92 7.52533 222.304 7.632C222.688 7.73867 223.045 7.89333 223.376 8.096C223.707 8.29867 223.989 8.53867 224.224 8.816L223.488 9.616C223.285 9.40267 223.061 9.21067 222.816 9.04C222.571 8.86933 222.309 8.736 222.032 8.64C221.765 8.544 221.488 8.496 221.2 8.496C220.944 8.496 220.704 8.528 220.48 8.592C220.267 8.656 220.08 8.74667 219.92 8.864C219.771 8.97067 219.653 9.104 219.568 9.264C219.493 9.424 219.456 9.6 219.456 9.792C219.456 9.952 219.488 10.096 219.552 10.224C219.616 10.352 219.707 10.464 219.824 10.56C219.973 10.6773 220.181 10.7893 220.448 10.896C220.725 10.992 221.067 11.0933 221.472 11.2C221.941 11.328 222.336 11.4613 222.656 11.6C222.987 11.728 223.259 11.8827 223.472 12.064C223.76 12.2773 223.963 12.5227 224.08 12.8C224.208 13.0773 224.272 13.392 224.272 13.744C224.272 14.2133 224.139 14.6293 223.872 14.992C223.616 15.3547 223.259 15.6427 222.8 15.856C222.341 16.0587 221.819 16.16 221.232 16.16ZM227.224 13.312L227.176 11.92L231.544 7.648H233.16L227.224 13.312ZM226.152 16V4.16H227.352V16H226.152ZM231.88 16L228.36 11.92L229.208 11.088L233.448 16H231.88ZM237.42 16.16C236.705 16.16 236.065 16.0267 235.5 15.76C234.934 15.4933 234.486 15.1413 234.156 14.704L235.004 13.968C235.313 14.3413 235.676 14.624 236.092 14.816C236.518 15.008 236.993 15.104 237.516 15.104C237.782 15.104 238.022 15.0773 238.236 15.024C238.449 14.96 238.636 14.8693 238.796 14.752C238.956 14.6347 239.078 14.496 239.164 14.336C239.249 14.176 239.292 14 239.292 13.808C239.292 13.456 239.137 13.1627 238.828 12.928C238.689 12.832 238.492 12.736 238.236 12.64C237.98 12.5333 237.67 12.432 237.308 12.336C236.71 12.1653 236.214 11.9947 235.82 11.824C235.425 11.6427 235.116 11.4347 234.892 11.2C234.732 11.008 234.609 10.8 234.524 10.576C234.449 10.352 234.412 10.1067 234.412 9.84C234.412 9.49867 234.481 9.184 234.62 8.896C234.769 8.608 234.972 8.35733 235.228 8.144C235.494 7.92 235.804 7.75467 236.156 7.648C236.518 7.53067 236.908 7.472 237.324 7.472C237.718 7.472 238.108 7.52533 238.492 7.632C238.876 7.73867 239.233 7.89333 239.564 8.096C239.894 8.29867 240.177 8.53867 240.412 8.816L239.676 9.616C239.473 9.40267 239.249 9.21067 239.004 9.04C238.758 8.86933 238.497 8.736 238.22 8.64C237.953 8.544 237.676 8.496 237.388 8.496C237.132 8.496 236.892 8.528 236.668 8.592C236.454 8.656 236.268 8.74667 236.108 8.864C235.958 8.97067 235.841 9.104 235.756 9.264C235.681 9.424 235.644 9.6 235.644 9.792C235.644 9.952 235.676 10.096 235.74 10.224C235.804 10.352 235.894 10.464 236.012 10.56C236.161 10.6773 236.369 10.7893 236.636 10.896C236.913 10.992 237.254 11.0933 237.66 11.2C238.129 11.328 238.524 11.4613 238.844 11.6C239.174 11.728 239.446 11.8827 239.66 12.064C239.948 12.2773 240.15 12.5227 240.268 12.8C240.396 13.0773 240.46 13.392 240.46 13.744C240.46 14.2133 240.326 14.6293 240.06 14.992C239.804 15.3547 239.446 15.6427 238.988 15.856C238.529 16.0587 238.006 16.16 237.42 16.16ZM248.232 19.68L249.848 15.744L249.96 16.88L245.768 7.648H247.128L249.992 14.048C250.078 14.2187 250.163 14.4213 250.248 14.656C250.334 14.88 250.414 15.104 250.488 15.328L250.04 15.28C250.115 15.0987 250.184 14.912 250.248 14.72C250.323 14.528 250.392 14.3413 250.456 14.16L252.968 7.648H254.344L250.968 16L249.528 19.68H248.232ZM259.129 16.16C258.297 16.16 257.556 15.9787 256.905 15.616C256.265 15.2533 255.764 14.7467 255.401 14.096C255.039 13.4453 254.857 12.6987 254.857 11.856C254.857 11.2053 254.959 10.6187 255.161 10.096C255.364 9.56267 255.647 9.09867 256.009 8.704C256.383 8.30933 256.825 8.00533 257.337 7.792C257.849 7.568 258.404 7.456 259.001 7.456C259.567 7.456 260.079 7.55733 260.537 7.76C261.007 7.96267 261.407 8.24533 261.737 8.608C262.079 8.96 262.335 9.38133 262.505 9.872C262.676 10.3627 262.751 10.9013 262.729 11.488L262.713 12.048H255.753L255.577 11.04H261.801L261.513 11.312V10.928C261.492 10.544 261.38 10.176 261.177 9.824C260.975 9.46133 260.687 9.168 260.313 8.944C259.951 8.72 259.513 8.608 259.001 8.608C258.404 8.608 257.887 8.73067 257.449 8.976C257.012 9.21067 256.676 9.56267 256.441 10.032C256.207 10.5013 256.089 11.0827 256.089 11.776C256.089 12.4373 256.217 13.0133 256.473 13.504C256.729 13.984 257.092 14.3573 257.561 14.624C258.041 14.8907 258.617 15.024 259.289 15.024C259.684 15.024 260.073 14.96 260.457 14.832C260.852 14.6933 261.284 14.4267 261.753 14.032L262.377 14.896C262.132 15.1413 261.839 15.36 261.497 15.552C261.156 15.7333 260.783 15.8827 260.377 16C259.972 16.1067 259.556 16.16 259.129 16.16ZM265.586 16V5.456H266.786V16H265.586ZM263.698 8.8V7.648H268.898V8.8H263.698ZM270.219 18.64L269.771 18.064C270.112 17.8613 270.379 17.6427 270.571 17.408C270.763 17.1733 270.859 16.9493 270.859 16.736C270.859 16.6187 270.837 16.5067 270.795 16.4C270.752 16.2933 270.645 16.16 270.475 16C270.325 15.8613 270.213 15.728 270.139 15.6C270.075 15.472 270.043 15.3387 270.043 15.2C270.043 14.9867 270.117 14.816 270.267 14.688C270.416 14.5493 270.613 14.48 270.859 14.48C271.104 14.48 271.317 14.544 271.499 14.672C271.68 14.8 271.819 14.9813 271.915 15.216C272.021 15.44 272.075 15.7067 272.075 16.016C272.075 16.304 272.032 16.5707 271.947 16.816C271.861 17.072 271.739 17.312 271.579 17.536C271.419 17.76 271.227 17.9627 271.003 18.144C270.779 18.3253 270.517 18.4907 270.219 18.64ZM128.187 36V24.8H132.619C133.206 24.8 133.734 24.944 134.203 25.232C134.672 25.52 135.046 25.92 135.323 26.432C135.6 26.9333 135.739 27.4987 135.739 28.128C135.739 28.7893 135.6 29.3813 135.323 29.904C135.046 30.416 134.672 30.8267 134.203 31.136C133.734 31.4347 133.206 31.584 132.619 31.584H129.435V36H128.187ZM129.435 30.368H132.683C133.014 30.368 133.307 30.272 133.563 30.08C133.83 29.8773 134.043 29.6107 134.203 29.28C134.363 28.9387 134.443 28.5493 134.443 28.112C134.443 27.7173 134.363 27.3653 134.203 27.056C134.043 26.736 133.83 26.4853 133.563 26.304C133.307 26.112 133.014 26.016 132.683 26.016H129.435V30.368ZM137.66 36V27.648H138.86L138.892 29.872L138.764 29.568C138.882 29.1947 139.068 28.848 139.324 28.528C139.591 28.208 139.906 27.952 140.268 27.76C140.631 27.568 141.031 27.472 141.468 27.472C141.65 27.472 141.82 27.488 141.98 27.52C142.14 27.5413 142.274 27.5733 142.38 27.616L142.044 28.96C141.906 28.896 141.762 28.8533 141.612 28.832C141.474 28.8 141.34 28.784 141.212 28.784C140.85 28.784 140.524 28.848 140.236 28.976C139.948 29.104 139.703 29.2853 139.5 29.52C139.298 29.744 139.143 30.0053 139.036 30.304C138.93 30.6027 138.876 30.9227 138.876 31.264V36H137.66ZM146.95 36.16C146.118 36.16 145.376 35.9787 144.726 35.616C144.086 35.2533 143.584 34.7467 143.222 34.096C142.859 33.4453 142.678 32.6987 142.678 31.856C142.678 31.2053 142.779 30.6187 142.982 30.096C143.184 29.5627 143.467 29.0987 143.83 28.704C144.203 28.3093 144.646 28.0053 145.158 27.792C145.67 27.568 146.224 27.456 146.822 27.456C147.387 27.456 147.899 27.5573 148.358 27.76C148.827 27.9627 149.227 28.2453 149.558 28.608C149.899 28.96 150.155 29.3813 150.326 29.872C150.496 30.3627 150.571 30.9013 150.55 31.488L150.534 32.048H143.574L143.398 31.04H149.622L149.334 31.312V30.928C149.312 30.544 149.2 30.176 148.998 29.824C148.795 29.4613 148.507 29.168 148.134 28.944C147.771 28.72 147.334 28.608 146.822 28.608C146.224 28.608 145.707 28.7307 145.27 28.976C144.832 29.2107 144.496 29.5627 144.262 30.032C144.027 30.5013 143.91 31.0827 143.91 31.776C143.91 32.4373 144.038 33.0133 144.294 33.504C144.55 33.984 144.912 34.3573 145.382 34.624C145.862 34.8907 146.438 35.024 147.11 35.024C147.504 35.024 147.894 34.96 148.278 34.832C148.672 34.6933 149.104 34.4267 149.574 34.032L150.198 34.896C149.952 35.1413 149.659 35.36 149.318 35.552C148.976 35.7333 148.603 35.8827 148.198 36C147.792 36.1067 147.376 36.16 146.95 36.16ZM154.99 36.16C154.275 36.16 153.635 36.0267 153.07 35.76C152.505 35.4933 152.057 35.1413 151.726 34.704L152.574 33.968C152.883 34.3413 153.246 34.624 153.662 34.816C154.089 35.008 154.563 35.104 155.086 35.104C155.353 35.104 155.593 35.0773 155.806 35.024C156.019 34.96 156.206 34.8693 156.366 34.752C156.526 34.6347 156.649 34.496 156.734 34.336C156.819 34.176 156.862 34 156.862 33.808C156.862 33.456 156.707 33.1627 156.398 32.928C156.259 32.832 156.062 32.736 155.806 32.64C155.55 32.5333 155.241 32.432 154.878 32.336C154.281 32.1653 153.785 31.9947 153.39 31.824C152.995 31.6427 152.686 31.4347 152.462 31.2C152.302 31.008 152.179 30.8 152.094 30.576C152.019 30.352 151.982 30.1067 151.982 29.84C151.982 29.4987 152.051 29.184 152.19 28.896C152.339 28.608 152.542 28.3573 152.798 28.144C153.065 27.92 153.374 27.7547 153.726 27.648C154.089 27.5307 154.478 27.472 154.894 27.472C155.289 27.472 155.678 27.5253 156.062 27.632C156.446 27.7387 156.803 27.8933 157.134 28.096C157.465 28.2987 157.747 28.5387 157.982 28.816L157.246 29.616C157.043 29.4027 156.819 29.2107 156.574 29.04C156.329 28.8693 156.067 28.736 155.79 28.64C155.523 28.544 155.246 28.496 154.958 28.496C154.702 28.496 154.462 28.528 154.238 28.592C154.025 28.656 153.838 28.7467 153.678 28.864C153.529 28.9707 153.411 29.104 153.326 29.264C153.251 29.424 153.214 29.6 153.214 29.792C153.214 29.952 153.246 30.096 153.31 30.224C153.374 30.352 153.465 30.464 153.582 30.56C153.731 30.6773 153.939 30.7893 154.206 30.896C154.483 30.992 154.825 31.0933 155.23 31.2C155.699 31.328 156.094 31.4613 156.414 31.6C156.745 31.728 157.017 31.8827 157.23 32.064C157.518 32.2773 157.721 32.5227 157.838 32.8C157.966 33.0773 158.03 33.392 158.03 33.744C158.03 34.2133 157.897 34.6293 157.63 34.992C157.374 35.3547 157.017 35.6427 156.558 35.856C156.099 36.0587 155.577 36.16 154.99 36.16ZM162.646 36.16C161.932 36.16 161.292 36.0267 160.726 35.76C160.161 35.4933 159.713 35.1413 159.382 34.704L160.23 33.968C160.54 34.3413 160.902 34.624 161.318 34.816C161.745 35.008 162.22 35.104 162.742 35.104C163.009 35.104 163.249 35.0773 163.462 35.024C163.676 34.96 163.862 34.8693 164.022 34.752C164.182 34.6347 164.305 34.496 164.39 34.336C164.476 34.176 164.518 34 164.518 33.808C164.518 33.456 164.364 33.1627 164.054 32.928C163.916 32.832 163.718 32.736 163.462 32.64C163.206 32.5333 162.897 32.432 162.534 32.336C161.937 32.1653 161.441 31.9947 161.046 31.824C160.652 31.6427 160.342 31.4347 160.118 31.2C159.958 31.008 159.836 30.8 159.75 30.576C159.676 30.352 159.638 30.1067 159.638 29.84C159.638 29.4987 159.708 29.184 159.846 28.896C159.996 28.608 160.198 28.3573 160.454 28.144C160.721 27.92 161.03 27.7547 161.382 27.648C161.745 27.5307 162.134 27.472 162.55 27.472C162.945 27.472 163.334 27.5253 163.718 27.632C164.102 27.7387 164.46 27.8933 164.79 28.096C165.121 28.2987 165.404 28.5387 165.638 28.816L164.902 29.616C164.7 29.4027 164.476 29.2107 164.23 29.04C163.985 28.8693 163.724 28.736 163.446 28.64C163.18 28.544 162.902 28.496 162.614 28.496C162.358 28.496 162.118 28.528 161.894 28.592C161.681 28.656 161.494 28.7467 161.334 28.864C161.185 28.9707 161.068 29.104 160.982 29.264C160.908 29.424 160.87 29.6 160.87 29.792C160.87 29.952 160.902 30.096 160.966 30.224C161.03 30.352 161.121 30.464 161.238 30.56C161.388 30.6773 161.596 30.7893 161.862 30.896C162.14 30.992 162.481 31.0933 162.886 31.2C163.356 31.328 163.75 31.4613 164.07 31.6C164.401 31.728 164.673 31.8827 164.886 32.064C165.174 32.2773 165.377 32.5227 165.494 32.8C165.622 33.0773 165.686 33.392 165.686 33.744C165.686 34.2133 165.553 34.6293 165.286 34.992C165.03 35.3547 164.673 35.6427 164.214 35.856C163.756 36.0587 163.233 36.16 162.646 36.16ZM173.203 36V25.456H174.403V36H173.203ZM171.315 28.8V27.648H176.515V28.8H171.315ZM177.988 36V24.16H179.188V29.472L178.948 29.712C179.066 29.2747 179.284 28.8907 179.604 28.56C179.924 28.2187 180.298 27.952 180.724 27.76C181.162 27.568 181.604 27.472 182.052 27.472C182.692 27.472 183.226 27.5947 183.652 27.84C184.079 28.0853 184.394 28.464 184.596 28.976C184.81 29.488 184.916 30.1387 184.916 30.928V36H183.7V30.992C183.7 30.4373 183.626 29.984 183.476 29.632C183.338 29.2693 183.119 29.0027 182.82 28.832C182.522 28.6613 182.148 28.5813 181.7 28.592C181.348 28.592 181.018 28.656 180.708 28.784C180.399 28.9013 180.132 29.0667 179.908 29.28C179.684 29.4933 179.508 29.7387 179.38 30.016C179.252 30.2933 179.188 30.592 179.188 30.912V36H178.596C178.522 36 178.436 36 178.34 36C178.244 36 178.127 36 177.988 36ZM190.887 36.16C190.055 36.16 189.314 35.9787 188.663 35.616C188.023 35.2533 187.522 34.7467 187.159 34.096C186.796 33.4453 186.615 32.6987 186.615 31.856C186.615 31.2053 186.716 30.6187 186.919 30.096C187.122 29.5627 187.404 29.0987 187.767 28.704C188.14 28.3093 188.583 28.0053 189.095 27.792C189.607 27.568 190.162 27.456 190.759 27.456C191.324 27.456 191.836 27.5573 192.295 27.76C192.764 27.9627 193.164 28.2453 193.495 28.608C193.836 28.96 194.092 29.3813 194.263 29.872C194.434 30.3627 194.508 30.9013 194.487 31.488L194.471 32.048H187.511L187.335 31.04H193.559L193.271 31.312V30.928C193.25 30.544 193.138 30.176 192.935 29.824C192.732 29.4613 192.444 29.168 192.071 28.944C191.708 28.72 191.271 28.608 190.759 28.608C190.162 28.608 189.644 28.7307 189.207 28.976C188.77 29.2107 188.434 29.5627 188.199 30.032C187.964 30.5013 187.847 31.0827 187.847 31.776C187.847 32.4373 187.975 33.0133 188.231 33.504C188.487 33.984 188.85 34.3573 189.319 34.624C189.799 34.8907 190.375 35.024 191.047 35.024C191.442 35.024 191.831 34.96 192.215 34.832C192.61 34.6933 193.042 34.4267 193.511 34.032L194.135 34.896C193.89 35.1413 193.596 35.36 193.255 35.552C192.914 35.7333 192.54 35.8827 192.135 36C191.73 36.1067 191.314 36.16 190.887 36.16ZM204.916 36.16C204.521 36.16 204.137 36.1013 203.764 35.984C203.39 35.856 203.049 35.6853 202.74 35.472C202.441 35.2587 202.185 35.0133 201.972 34.736C201.769 34.4587 201.63 34.1707 201.556 33.872L201.908 33.888L201.86 35.984H200.676V24.16H201.876V29.648L201.636 29.712C201.71 29.4133 201.844 29.1307 202.036 28.864C202.238 28.5867 202.489 28.3467 202.788 28.144C203.086 27.9307 203.412 27.7653 203.764 27.648C204.126 27.5307 204.5 27.472 204.884 27.472C205.63 27.472 206.297 27.6587 206.884 28.032C207.481 28.4053 207.956 28.9173 208.308 29.568C208.66 30.2187 208.836 30.9653 208.836 31.808C208.836 32.6507 208.665 33.4027 208.324 34.064C207.982 34.7147 207.513 35.2267 206.916 35.6C206.329 35.9733 205.662 36.16 204.916 36.16ZM204.724 35.024C205.289 35.024 205.79 34.8853 206.228 34.608C206.665 34.32 207.006 33.936 207.252 33.456C207.508 32.9653 207.636 32.416 207.636 31.808C207.636 31.1893 207.508 30.64 207.252 30.16C207.006 29.68 206.665 29.3013 206.228 29.024C205.79 28.7467 205.289 28.608 204.724 28.608C204.158 28.608 203.657 28.7467 203.22 29.024C202.782 29.3013 202.436 29.68 202.18 30.16C201.934 30.64 201.812 31.1893 201.812 31.808C201.812 32.4267 201.934 32.9813 202.18 33.472C202.436 33.952 202.782 34.3307 203.22 34.608C203.657 34.8853 204.158 35.024 204.724 35.024ZM213.542 36.16C212.902 36.16 212.358 36.032 211.91 35.776C211.473 35.5093 211.137 35.1253 210.902 34.624C210.678 34.1227 210.566 33.4987 210.566 32.752V27.648H211.782V32.512C211.782 33.0773 211.857 33.552 212.006 33.936C212.166 34.3093 212.401 34.592 212.71 34.784C213.03 34.976 213.419 35.072 213.878 35.072C214.23 35.072 214.555 35.0133 214.854 34.896C215.153 34.768 215.414 34.5973 215.638 34.384C215.862 34.1707 216.038 33.92 216.166 33.632C216.294 33.344 216.358 33.04 216.358 32.72V27.648H217.558V36H216.374L216.326 34.24L216.518 34.144C216.39 34.5173 216.177 34.8587 215.878 35.168C215.579 35.4667 215.222 35.7067 214.806 35.888C214.401 36.0693 213.979 36.16 213.542 36.16ZM221.047 36V25.456H222.247V36H221.047ZM219.159 28.8V27.648H224.359V28.8H219.159ZM226.984 36V25.456H228.184V36H226.984ZM225.096 28.8V27.648H230.296V28.8H225.096ZM235.387 36.16C234.555 36.16 233.814 35.9733 233.163 35.6C232.523 35.2267 232.017 34.7093 231.643 34.048C231.281 33.3867 231.099 32.6347 231.099 31.792C231.099 30.96 231.281 30.2187 231.643 29.568C232.017 28.9173 232.523 28.4053 233.163 28.032C233.814 27.6587 234.555 27.472 235.387 27.472C236.209 27.472 236.939 27.6587 237.579 28.032C238.23 28.4053 238.737 28.9173 239.099 29.568C239.473 30.2187 239.659 30.96 239.659 31.792C239.659 32.6347 239.473 33.3867 239.099 34.048C238.737 34.7093 238.23 35.2267 237.579 35.6C236.939 35.9733 236.209 36.16 235.387 36.16ZM235.387 35.024C235.974 35.024 236.497 34.8853 236.955 34.608C237.414 34.32 237.771 33.936 238.027 33.456C238.283 32.9653 238.411 32.4107 238.411 31.792C238.411 31.1733 238.283 30.624 238.027 30.144C237.771 29.664 237.414 29.2907 236.955 29.024C236.497 28.7467 235.974 28.608 235.387 28.608C234.801 28.608 234.273 28.7467 233.803 29.024C233.345 29.2907 232.982 29.6693 232.715 30.16C232.459 30.64 232.337 31.184 232.347 31.792C232.337 32.4107 232.459 32.9653 232.715 33.456C232.982 33.936 233.345 34.32 233.803 34.608C234.273 34.8853 234.801 35.024 235.387 35.024ZM241.41 36V27.648H242.594L242.642 29.392L242.45 29.472C242.557 29.1093 242.765 28.7787 243.074 28.48C243.384 28.1813 243.752 27.9413 244.178 27.76C244.616 27.568 245.064 27.472 245.522 27.472C246.141 27.472 246.658 27.5947 247.074 27.84C247.49 28.0853 247.805 28.464 248.018 28.976C248.232 29.488 248.338 30.1387 248.338 30.928V36H247.122V30.992C247.122 30.4373 247.048 29.984 246.898 29.632C246.76 29.2693 246.541 29.0027 246.242 28.832C245.944 28.6613 245.576 28.5813 245.138 28.592C244.776 28.592 244.44 28.656 244.13 28.784C243.821 28.9013 243.554 29.0667 243.33 29.28C243.106 29.4933 242.93 29.7387 242.802 30.016C242.674 30.2933 242.61 30.592 242.61 30.912V36H242.018C241.944 36 241.858 36 241.762 36C241.666 36 241.549 36 241.41 36ZM128.094 56V46.016H124.894V44.8H132.67V46.016H129.342V56H128.094ZM136.403 56.16C135.571 56.16 134.83 55.9733 134.179 55.6C133.539 55.2267 133.032 54.7093 132.659 54.048C132.296 53.3867 132.115 52.6347 132.115 51.792C132.115 50.96 132.296 50.2187 132.659 49.568C133.032 48.9173 133.539 48.4053 134.179 48.032C134.83 47.6587 135.571 47.472 136.403 47.472C137.224 47.472 137.955 47.6587 138.595 48.032C139.246 48.4053 139.752 48.9173 140.115 49.568C140.488 50.2187 140.675 50.96 140.675 51.792C140.675 52.6347 140.488 53.3867 140.115 54.048C139.752 54.7093 139.246 55.2267 138.595 55.6C137.955 55.9733 137.224 56.16 136.403 56.16ZM136.403 55.024C136.99 55.024 137.512 54.8853 137.971 54.608C138.43 54.32 138.787 53.936 139.043 53.456C139.299 52.9653 139.427 52.4107 139.427 51.792C139.427 51.1733 139.299 50.624 139.043 50.144C138.787 49.664 138.43 49.2907 137.971 49.024C137.512 48.7467 136.99 48.608 136.403 48.608C135.816 48.608 135.288 48.7467 134.819 49.024C134.36 49.2907 133.998 49.6693 133.731 50.16C133.475 50.64 133.352 51.184 133.363 51.792C133.352 52.4107 133.475 52.9653 133.731 53.456C133.998 53.936 134.36 54.32 134.819 54.608C135.288 54.8853 135.816 55.024 136.403 55.024ZM150.174 56.16C149.449 56.16 148.793 55.9733 148.206 55.6C147.62 55.216 147.156 54.6987 146.814 54.048C146.473 53.3867 146.302 52.64 146.302 51.808C146.302 50.9653 146.478 50.2187 146.83 49.568C147.182 48.9173 147.652 48.4053 148.238 48.032C148.836 47.6587 149.502 47.472 150.238 47.472C150.676 47.472 151.081 47.536 151.454 47.664C151.828 47.792 152.158 47.9733 152.446 48.208C152.745 48.432 152.99 48.6987 153.182 49.008C153.385 49.3067 153.524 49.632 153.598 49.984L153.246 49.808L153.294 47.648H154.494V56H153.278V53.952L153.598 53.744C153.524 54.064 153.38 54.3733 153.166 54.672C152.953 54.96 152.692 55.216 152.382 55.44C152.084 55.664 151.742 55.84 151.358 55.968C150.985 56.096 150.59 56.16 150.174 56.16ZM150.446 55.008C151.001 55.008 151.497 54.8747 151.934 54.608C152.372 54.3307 152.713 53.952 152.958 53.472C153.214 52.9813 153.342 52.4267 153.342 51.808C153.342 51.1893 153.214 50.64 152.958 50.16C152.713 49.68 152.372 49.3013 151.934 49.024C151.497 48.7467 151.001 48.608 150.446 48.608C149.881 48.608 149.38 48.7467 148.942 49.024C148.516 49.3013 148.174 49.68 147.918 50.16C147.673 50.64 147.55 51.1893 147.55 51.808C147.55 52.416 147.673 52.9653 147.918 53.456C148.164 53.936 148.505 54.3147 148.942 54.592C149.38 54.8693 149.881 55.008 150.446 55.008ZM160.224 56.16C159.467 56.16 158.784 55.9733 158.176 55.6C157.579 55.2267 157.104 54.7147 156.752 54.064C156.411 53.4027 156.24 52.656 156.24 51.824C156.24 50.9813 156.416 50.2347 156.768 49.584C157.12 48.9227 157.595 48.4053 158.192 48.032C158.789 47.6587 159.461 47.472 160.208 47.472C160.624 47.472 161.024 47.536 161.408 47.664C161.803 47.792 162.155 47.9733 162.464 48.208C162.773 48.432 163.029 48.6933 163.232 48.992C163.435 49.28 163.557 49.584 163.6 49.904L163.232 49.776V44.16H164.432V56H163.248L163.216 53.92L163.52 53.808C163.477 54.1067 163.355 54.4 163.152 54.688C162.96 54.9653 162.715 55.216 162.416 55.44C162.117 55.664 161.776 55.84 161.392 55.968C161.019 56.096 160.629 56.16 160.224 56.16ZM160.4 55.056C160.955 55.056 161.451 54.9173 161.888 54.64C162.325 54.3627 162.667 53.9787 162.912 53.488C163.168 52.9973 163.296 52.4373 163.296 51.808C163.296 51.1787 163.168 50.624 162.912 50.144C162.667 49.6533 162.325 49.2693 161.888 48.992C161.451 48.704 160.955 48.56 160.4 48.56C159.824 48.56 159.317 48.704 158.88 48.992C158.453 49.2693 158.112 49.6533 157.856 50.144C157.611 50.624 157.488 51.1787 157.488 51.808C157.488 52.4267 157.611 52.9813 157.856 53.472C158.101 53.9627 158.443 54.352 158.88 54.64C159.317 54.9173 159.824 55.056 160.4 55.056ZM170.162 56.16C169.404 56.16 168.722 55.9733 168.114 55.6C167.516 55.2267 167.042 54.7147 166.69 54.064C166.348 53.4027 166.178 52.656 166.178 51.824C166.178 50.9813 166.354 50.2347 166.706 49.584C167.058 48.9227 167.532 48.4053 168.13 48.032C168.727 47.6587 169.399 47.472 170.146 47.472C170.562 47.472 170.962 47.536 171.346 47.664C171.74 47.792 172.092 47.9733 172.402 48.208C172.711 48.432 172.967 48.6933 173.17 48.992C173.372 49.28 173.495 49.584 173.538 49.904L173.17 49.776V44.16H174.37V56H173.186L173.154 53.92L173.458 53.808C173.415 54.1067 173.292 54.4 173.09 54.688C172.898 54.9653 172.652 55.216 172.354 55.44C172.055 55.664 171.714 55.84 171.33 55.968C170.956 56.096 170.567 56.16 170.162 56.16ZM170.338 55.056C170.892 55.056 171.388 54.9173 171.826 54.64C172.263 54.3627 172.604 53.9787 172.85 53.488C173.106 52.9973 173.234 52.4373 173.234 51.808C173.234 51.1787 173.106 50.624 172.85 50.144C172.604 49.6533 172.263 49.2693 171.826 48.992C171.388 48.704 170.892 48.56 170.338 48.56C169.762 48.56 169.255 48.704 168.818 48.992C168.391 49.2693 168.05 49.6533 167.794 50.144C167.548 50.624 167.426 51.1787 167.426 51.808C167.426 52.4267 167.548 52.9813 167.794 53.472C168.039 53.9627 168.38 54.352 168.818 54.64C169.255 54.9173 169.762 55.056 170.338 55.056ZM181.671 56V44.8H182.807L190.135 54.496L189.911 54.784C189.879 54.6133 189.853 54.3573 189.831 54.016C189.821 53.6747 189.805 53.2907 189.783 52.864C189.773 52.4267 189.762 51.9733 189.751 51.504C189.741 51.0347 189.73 50.576 189.719 50.128C189.719 49.68 189.719 49.2747 189.719 48.912V44.8H190.967V56H189.799L182.503 46.432L182.695 46.096C182.727 46.5227 182.754 46.944 182.775 47.36C182.807 47.776 182.829 48.176 182.839 48.56C182.861 48.944 182.877 49.296 182.887 49.616C182.898 49.936 182.903 50.208 182.903 50.432C182.914 50.656 182.919 50.816 182.919 50.912V56H181.671ZM197.465 56.16C196.633 56.16 195.892 55.9787 195.241 55.616C194.601 55.2533 194.1 54.7467 193.737 54.096C193.375 53.4453 193.193 52.6987 193.193 51.856C193.193 51.2053 193.295 50.6187 193.497 50.096C193.7 49.5627 193.983 49.0987 194.345 48.704C194.719 48.3093 195.161 48.0053 195.673 47.792C196.185 47.568 196.74 47.456 197.337 47.456C197.903 47.456 198.415 47.5573 198.873 47.76C199.343 47.9627 199.743 48.2453 200.073 48.608C200.415 48.96 200.671 49.3813 200.841 49.872C201.012 50.3627 201.087 50.9013 201.065 51.488L201.049 52.048H194.089L193.913 51.04H200.137L199.849 51.312V50.928C199.828 50.544 199.716 50.176 199.513 49.824C199.311 49.4613 199.023 49.168 198.649 48.944C198.287 48.72 197.849 48.608 197.337 48.608C196.74 48.608 196.223 48.7307 195.785 48.976C195.348 49.2107 195.012 49.5627 194.777 50.032C194.543 50.5013 194.425 51.0827 194.425 51.776C194.425 52.4373 194.553 53.0133 194.809 53.504C195.065 53.984 195.428 54.3573 195.897 54.624C196.377 54.8907 196.953 55.024 197.625 55.024C198.02 55.024 198.409 54.96 198.793 54.832C199.188 54.6933 199.62 54.4267 200.089 54.032L200.713 54.896C200.468 55.1413 200.175 55.36 199.833 55.552C199.492 55.7333 199.119 55.8827 198.713 56C198.308 56.1067 197.892 56.16 197.465 56.16ZM204.581 56L201.685 47.648L202.965 47.632L205.221 54.432L204.821 54.4L207.269 48.928H207.989L210.453 54.4L209.973 54.432L212.277 47.648H213.541L210.645 56H209.941L207.349 50.048L207.829 50.08L205.317 56H204.581ZM221.953 56V46.016H218.753V44.8H226.529V46.016H223.201V56H221.953ZM229.83 56.16C229.105 56.16 228.449 55.9733 227.862 55.6C227.276 55.216 226.812 54.6987 226.47 54.048C226.129 53.3867 225.958 52.64 225.958 51.808C225.958 50.9653 226.134 50.2187 226.486 49.568C226.838 48.9173 227.308 48.4053 227.894 48.032C228.492 47.6587 229.158 47.472 229.894 47.472C230.332 47.472 230.737 47.536 231.11 47.664C231.484 47.792 231.814 47.9733 232.102 48.208C232.401 48.432 232.646 48.6987 232.838 49.008C233.041 49.3067 233.18 49.632 233.254 49.984L232.902 49.808L232.95 47.648H234.15V56H232.934V53.952L233.254 53.744C233.18 54.064 233.036 54.3733 232.822 54.672C232.609 54.96 232.348 55.216 232.038 55.44C231.74 55.664 231.398 55.84 231.014 55.968C230.641 56.096 230.246 56.16 229.83 56.16ZM230.102 55.008C230.657 55.008 231.153 54.8747 231.59 54.608C232.028 54.3307 232.369 53.952 232.614 53.472C232.87 52.9813 232.998 52.4267 232.998 51.808C232.998 51.1893 232.87 50.64 232.614 50.16C232.369 49.68 232.028 49.3013 231.59 49.024C231.153 48.7467 230.657 48.608 230.102 48.608C229.537 48.608 229.036 48.7467 228.598 49.024C228.172 49.3013 227.83 49.68 227.574 50.16C227.329 50.64 227.206 51.1893 227.206 51.808C227.206 52.416 227.329 52.9653 227.574 53.456C227.82 53.936 228.161 54.3147 228.598 54.592C229.036 54.8693 229.537 55.008 230.102 55.008ZM239.224 56.16C238.51 56.16 237.87 56.0267 237.304 55.76C236.739 55.4933 236.291 55.1413 235.96 54.704L236.808 53.968C237.118 54.3413 237.48 54.624 237.896 54.816C238.323 55.008 238.798 55.104 239.32 55.104C239.587 55.104 239.827 55.0773 240.04 55.024C240.254 54.96 240.44 54.8693 240.6 54.752C240.76 54.6347 240.883 54.496 240.968 54.336C241.054 54.176 241.096 54 241.096 53.808C241.096 53.456 240.942 53.1627 240.632 52.928C240.494 52.832 240.296 52.736 240.04 52.64C239.784 52.5333 239.475 52.432 239.112 52.336C238.515 52.1653 238.019 51.9947 237.624 51.824C237.23 51.6427 236.92 51.4347 236.696 51.2C236.536 51.008 236.414 50.8 236.328 50.576C236.254 50.352 236.216 50.1067 236.216 49.84C236.216 49.4987 236.286 49.184 236.424 48.896C236.574 48.608 236.776 48.3573 237.032 48.144C237.299 47.92 237.608 47.7547 237.96 47.648C238.323 47.5307 238.712 47.472 239.128 47.472C239.523 47.472 239.912 47.5253 240.296 47.632C240.68 47.7387 241.038 47.8933 241.368 48.096C241.699 48.2987 241.982 48.5387 242.216 48.816L241.48 49.616C241.278 49.4027 241.054 49.2107 240.808 49.04C240.563 48.8693 240.302 48.736 240.024 48.64C239.758 48.544 239.48 48.496 239.192 48.496C238.936 48.496 238.696 48.528 238.472 48.592C238.259 48.656 238.072 48.7467 237.912 48.864C237.763 48.9707 237.646 49.104 237.56 49.264C237.486 49.424 237.448 49.6 237.448 49.792C237.448 49.952 237.48 50.096 237.544 50.224C237.608 50.352 237.699 50.464 237.816 50.56C237.966 50.6773 238.174 50.7893 238.44 50.896C238.718 50.992 239.059 51.0933 239.464 51.2C239.934 51.328 240.328 51.4613 240.648 51.6C240.979 51.728 241.251 51.8827 241.464 52.064C241.752 52.2773 241.955 52.5227 242.072 52.8C242.2 53.0773 242.264 53.392 242.264 53.744C242.264 54.2133 242.131 54.6293 241.864 54.992C241.608 55.3547 241.251 55.6427 240.792 55.856C240.334 56.0587 239.811 56.16 239.224 56.16ZM245.217 53.312L245.169 51.92L249.537 47.648H251.153L245.217 53.312ZM244.145 56V44.16H245.345V56H244.145ZM249.873 56L246.353 51.92L247.201 51.088L251.441 56H249.873Z" fill="#24252C"/>
<path d="M203.571 304.807C272.436 304.807 328.261 264.991 328.261 215.876C328.261 166.762 272.436 126.946 203.571 126.946C134.707 126.946 78.8818 166.762 78.8818 215.876C78.8818 264.991 134.707 304.807 203.571 304.807Z" fill="#F5F5FF"/>
<path d="M94.6526 346.09C126.089 346.09 151.573 342.167 151.573 337.328C151.573 332.489 126.089 328.567 94.6526 328.567C63.2165 328.567 37.7324 332.489 37.7324 337.328C37.7324 342.167 63.2165 346.09 94.6526 346.09Z" fill="#DFDFEB"/>
<path d="M187.688 347.842C244.479 347.842 290.517 343.92 290.517 339.081C290.517 334.242 244.479 330.319 187.688 330.319C130.896 330.319 84.8582 334.242 84.8582 339.081C84.8582 343.92 130.896 347.842 187.688 347.842Z" fill="#DFDFEB"/>
<path d="M159.714 123.087C149.095 123.376 140.31 131.886 139.699 142.496C139.339 148.735 141.756 154.413 145.823 158.418C146.424 159.01 146.703 159.854 146.563 160.686L145.036 169.728L154.433 164.25C154.968 163.938 155.599 163.823 156.206 163.946C158.503 164.41 160.937 164.495 163.446 164.115C172.729 162.708 179.972 155.018 180.828 145.663C181.968 133.195 172.015 122.752 159.714 123.087Z" fill="#D3DDF7"/>
<path d="M159.349 150.861L159.291 145.927C160.01 145.752 160.667 145.523 161.26 145.241C161.853 144.959 162.374 144.633 162.821 144.263C163.268 143.893 163.643 143.479 163.945 143.022C164.247 142.564 164.474 142.073 164.631 141.548C164.786 141.022 164.864 140.468 164.864 139.884C164.864 139.047 164.659 138.259 164.25 137.519C163.842 136.78 163.258 136.181 162.5 135.724C161.741 135.266 160.836 135.037 159.786 135.037C158.658 135.037 157.612 135.349 156.65 135.972C155.687 136.595 154.952 137.655 154.447 139.154L153.922 138.803C154.369 137.383 155.118 136.293 156.169 135.534C157.219 134.774 158.415 134.395 159.757 134.395C160.905 134.395 161.912 134.639 162.778 135.125C163.643 135.611 164.319 136.269 164.805 137.096C165.291 137.923 165.535 138.852 165.535 139.884C165.535 140.663 165.404 141.392 165.141 142.074C164.879 142.755 164.509 143.378 164.032 143.942C163.556 144.507 162.977 144.998 162.296 145.416C161.615 145.835 160.847 146.151 159.991 146.365L159.933 150.861L159.349 150.861ZM158.999 154.539C158.999 154.286 159.067 154.077 159.203 153.912C159.339 153.747 159.524 153.663 159.757 153.663C160.03 153.663 160.224 153.742 160.341 153.897C160.458 154.053 160.516 154.267 160.516 154.539C160.516 154.773 160.453 154.977 160.326 155.152C160.199 155.328 160.01 155.415 159.757 155.415C159.503 155.415 159.314 155.337 159.187 155.181C159.06 155.026 158.999 154.812 158.999 154.539Z" fill="black"/>
<path d="M100.026 324.998L100.941 331.898C100.941 331.898 118.096 339.209 116.504 339.315C114.913 339.421 90.262 337.829 90.262 337.829L91.7127 325.302L100.026 324.998Z" fill="black"/>
<path d="M95.2478 212.355C95.2478 212.355 93.8806 225.519 92.8558 226.203C91.8305 226.887 90.4639 227.229 90.4639 227.229L92.6849 212.185L95.2478 212.355Z" stroke="#424242" stroke-miterlimit="10"/>
<path d="M68.1595 203.306C68.1595 203.306 61.2064 219.015 63.225 227.767L101.768 221.884L100.963 205.565L68.1595 203.306Z" fill="black"/>
<path d="M101.767 221.885C101.767 221.885 101.986 259.574 102.253 272.705C102.521 285.836 104.816 326.387 104.816 326.387C104.816 326.387 97.6189 330.358 90.1226 327.149C89.5232 326.892 83.0657 221.533 83.0657 221.533L101.767 221.885Z" fill="black"/>
<path d="M63.8636 223.102L47.5999 326.731C47.5999 326.731 54.7024 333.389 63.674 327.329L80.2115 242.683L88.2424 237.288L89.4386 221.847L63.8636 223.102Z" fill="black"/>
<path d="M59.593 324.166L61.0737 330.119C61.0737 330.119 71.8957 343.141 70.3008 343.141C68.706 343.141 50.9353 335.08 50.9353 335.08L53.2137 322.678L59.593 324.166Z" fill="black"/>
<path d="M69.8042 209.665C69.8042 209.665 59.555 252.78 51.936 328.901" stroke="#424242" stroke-miterlimit="10"/>
<path d="M76.8323 214.302C76.8323 214.302 73.2435 223.279 67.1128 223.428" stroke="#424242" stroke-miterlimit="10"/>
<path d="M91.9906 327.77L86.7471 238.564L91.8696 233.189" stroke="#424242" stroke-miterlimit="10"/>
<path d="M91.9221 158.174C94.5889 157.628 96.5351 157.236 96.5351 157.236L113.168 166.325C113.196 166.34 113.225 166.356 113.253 166.371C118.703 169.381 121.113 174.486 120.969 181.641L121.777 192.006L112.764 184.688L105.144 199.388L100.305 216.744C74.4814 226.139 64.4507 209.27 64.4507 209.27L73.0066 190.739L76.4625 173.625C78.1044 164.842 83.175 159.966 91.9221 158.174Z" fill="#9EC68A"/>
<path d="M231.553 187.451C231.553 187.451 228.947 198.358 214.201 211.665C214.201 211.665 212.793 209.673 215.941 201.998C219.09 194.323 230.935 184.73 231.553 187.451Z" fill="#7E9E6E"/>
<path d="M231.553 187.451C231.553 187.451 218.531 195.564 214.201 211.665C214.201 211.665 213.206 217.218 214.811 222.188" stroke="black" stroke-miterlimit="10" stroke-linecap="round"/>
<path d="M197.515 194.214C197.515 194.214 201.178 191.79 195.592 184.79C190.286 178.14 184.603 172.119 172.922 169.297C172.922 169.297 175.462 185.534 182.915 189.844C190.368 194.154 197.515 194.214 197.515 194.214Z" fill="#7E9E6E"/>
<path d="M168.089 204.147C168.089 204.147 180.242 207.627 201.592 201.988C201.592 201.988 200.434 199.743 191.14 198.417C181.847 197.091 165.771 202.194 168.089 204.147Z" fill="#7E9E6E"/>
<path d="M168.089 204.146C168.089 204.146 183.378 197.263 201.592 201.988C201.592 201.988 203.458 202.585 205.224 205.29" stroke="black" stroke-miterlimit="10" stroke-linecap="round"/>
<path d="M177.588 215.974C177.588 215.974 190.22 225.506 211.571 219.867C211.571 219.867 207.977 212.249 198.684 210.923C189.39 209.596 175.271 214.021 177.588 215.974Z" fill="#7E9E6E"/>
<path d="M177.588 215.974C177.588 215.974 192.229 210.249 211.571 219.867C211.571 219.867 213.842 221.058 215.608 223.764" stroke="black" stroke-miterlimit="10" stroke-linecap="round"/>
<path d="M224.941 176.542C224.941 176.542 228.863 176.325 218.801 184.508C209.3 192.233 210.436 192.372 210.436 192.372C210.436 192.372 214.636 180.168 224.941 176.542Z" fill="black"/>
<path d="M203.642 196.158C203.642 196.158 206.477 197.466 212.029 192.988C217.582 188.51 220.224 177.905 224.941 176.542C224.941 176.542 213.134 179.539 203.642 196.158Z" fill="#7E9E6E"/>
<path d="M220.346 234.248C215.195 221.949 207.851 207.88 197.516 194.214C197.516 194.214 195.003 190.444 186.07 180.515C177.137 170.587 172.923 169.297 172.923 169.297" stroke="black" stroke-miterlimit="10" stroke-linecap="round"/>
<path d="M223.538 177.026C223.538 177.026 212.223 181.126 203.642 196.158C201.564 199.799 203.572 202.916 205.224 205.289" stroke="black" stroke-miterlimit="10" stroke-linecap="round"/>
<path d="M338.1 318.683C338.1 318.683 327.126 321.978 308.813 310.105C308.813 310.105 310.016 306.915 318.299 306.401C326.581 305.888 340.299 316.118 338.1 318.683Z" fill="#7E9E6E"/>
<path d="M337.689 317.876C337.689 317.876 325.633 308.385 309.027 309.791C309.027 309.791 303.469 310.744 299.345 313.946" stroke="black" stroke-miterlimit="10" stroke-linecap="round"/>
<path d="M314.213 294.21C314.213 294.21 317.738 296.831 322.416 289.194C326.859 281.939 330.585 274.543 329.263 262.593C329.263 262.593 314.866 270.508 313.352 278.986C311.837 287.465 314.213 294.21 314.213 294.21Z" fill="#7E9E6E"/>
<path d="M342.519 307.851C342.519 307.851 344.823 311.035 332.502 306.994C320.868 303.179 321.367 304.209 321.367 304.209C321.367 304.209 333.896 301.141 342.519 307.851Z" fill="black"/>
<path d="M314.508 300.54C314.508 300.54 314.942 303.633 321.71 305.883C328.478 308.132 338.822 304.619 342.519 307.851C342.519 307.851 333.612 299.536 314.508 300.54Z" fill="#7E9E6E"/>
<path d="M284.356 329.312C294.162 320.281 304.885 308.585 314.213 294.21C314.213 294.21 316.901 290.563 323.192 278.78C329.484 266.997 329.262 262.593 329.262 262.593" stroke="black" stroke-miterlimit="10" stroke-linecap="round"/>
<path d="M341.353 306.933C341.353 306.933 331.785 299.629 314.508 300.54C310.322 300.761 308.426 302.8 305.289 306.715" stroke="black" stroke-miterlimit="10" stroke-linecap="round"/>
<path d="M223.978 209.404C227.336 209.404 230.588 208.225 233.166 206.073L240.32 200.099C242.895 197.95 245.953 196.798 249.086 196.798H284.592C287.814 196.798 290.426 199.412 290.426 202.635V209.404V331.245C290.426 336.808 285.919 341.318 280.359 341.318H103.363C99.0392 341.318 95.5334 337.81 95.5334 333.484V217.238C95.5334 212.912 99.0392 209.404 103.363 209.404H223.978Z" fill="#333969"/>
<path d="M95.5339 334.14C95.5339 334.14 107.579 311.533 108.784 308.937L141.704 241.834C142.532 240.05 144.318 238.91 146.283 238.91H268.618C273.065 238.91 279.498 236.577 282.912 233.726L287.849 229.605C290.424 227.456 293.482 226.304 296.615 226.304H330.404C334.001 226.304 336.444 229.959 335.07 233.285L294.21 332.161C291.92 337.703 286.517 341.318 280.523 341.318H97.7432C96.5517 341.318 95.4514 340.296 95.4519 339.104L95.5339 334.14Z" fill="#7584F1"/>
<path d="M145.293 245.291L96.9868 339.244" stroke="black" stroke-miterlimit="10" stroke-linejoin="round"/>
<path d="M165.198 261.481H206.81C207.945 261.481 209 260.91 209.61 259.967C211.015 257.79 209.428 254.941 206.81 254.941H165.198C164.064 254.941 163.008 255.513 162.399 256.455C160.992 258.633 162.58 261.481 165.198 261.481Z" stroke="black" stroke-miterlimit="10" stroke-linejoin="round"/>
<path d="M243.037 293.773L210.638 313.086" stroke="black" stroke-miterlimit="10" stroke-linecap="round" stroke-linejoin="round"/>
<path d="M216.548 292.842L236.906 313.202" stroke="black" stroke-miterlimit="10" stroke-linecap="round" stroke-linejoin="round"/>
<path d="M232.139 321.032C245.107 317.443 253.422 306.588 250.712 296.786C248.002 286.984 235.293 281.947 222.326 285.536C209.359 289.124 201.044 299.98 203.753 309.782C206.463 319.584 219.172 324.621 232.139 321.032Z" stroke="black" stroke-miterlimit="10" stroke-linecap="round" stroke-linejoin="round"/>
<path d="M103.801 201.99L109.809 208.741C109.809 208.741 104.172 215.395 98.4478 211.453L97.5295 210.135L103.801 201.99Z" fill="#9EC68A"/>
<path d="M89.8398 161.713C89.8398 161.713 98.0716 163.871 91.5948 187.68" stroke="black" stroke-miterlimit="10" stroke-linecap="round"/>
<path d="M104.305 202.698C99.8603 197.702 94.4282 191.425 91.2192 187.096" stroke="black" stroke-miterlimit="10" stroke-linecap="round"/>
<path d="M98.4476 211.453C94.1823 207.078 88.4185 200.85 85.9028 198.542C81.9825 194.945 77.9137 189.157 79.2401 181.722L79.081 175.76" stroke="black" stroke-miterlimit="10" stroke-linecap="round"/>
<path d="M124.052 208.258C118.799 205.418 116.379 201.903 114.354 199.297C109.521 193.081 107.809 192.311 109.225 185.076L109.303 177.505L119.786 188.856C123.79 194.169 133.019 203.695 136.429 207.448C136.429 207.448 132.426 212.785 124.052 208.258Z" fill="#9EC68A"/>
<path d="M102.672 206.341C103.155 206.208 103.656 206.168 104.154 206.22C105.952 206.411 110.77 206.916 111.313 206.923C111.983 206.932 112.527 205.932 113.964 209.558C115.401 213.183 115.143 213.521 115.135 213.995C115.127 214.469 114.084 221.431 112.965 220.385C111.845 219.339 111.995 218.73 111.995 218.73C111.995 218.73 111.392 221.558 111.074 221.449C110.756 221.34 109.579 221.337 109.768 219.34C109.768 219.34 109.126 221.281 108.465 220.798C107.803 220.315 107.951 218.218 107.951 218.218C107.951 218.218 107.243 219.792 106.434 218.741C105.626 217.69 106.228 215.255 106.228 215.255L105.55 213.445L104.084 212.811C104.084 212.811 99.1484 214.103 98.2993 210.675C97.6474 208.041 101.058 206.782 102.672 206.341Z" fill="#DB9C7F"/>
<path d="M112.599 210.785L113.526 214.682L111.995 218.731" stroke="black" stroke-miterlimit="10" stroke-linecap="round"/>
<path d="M110.22 210.641L111.421 214.635L109.767 219.339" stroke="black" stroke-miterlimit="10" stroke-linecap="round"/>
<path d="M108.133 211.087L108.832 214.927L108.032 217.803" stroke="black" stroke-miterlimit="10" stroke-linecap="round"/>
<path d="M104.102 137.053C102.351 138.693 102.325 140.688 102.325 140.688C102.325 140.688 101.723 139.944 100.979 139.705" stroke="black" stroke-miterlimit="10" stroke-linecap="round"/>
<path d="M129.118 205.226C130.784 204.823 132.54 205.095 134.065 205.877C136.071 206.905 139.205 208.498 139.614 208.621C140.221 208.802 140.616 208.473 140.697 212.161C140.728 213.619 140.724 214.625 140.594 215.054C140.464 215.483 137.52 219.885 136.553 219.265C136.527 219.248 136.509 219.234 136.484 219.218C136.239 219.547 135.911 219.952 135.588 220.227C135.347 220.433 134.002 220.406 134.69 218.638C134.69 218.638 133.758 220.681 133.033 220.409C132.088 220.054 132.242 219.145 132.586 218.377C132.147 218.97 131.604 219.453 131.218 218.94C130.46 217.933 132.177 214.353 132.177 214.353L132.377 212.185L131.067 211.012C131.067 211.012 126.383 211.126 126.497 207.789C126.549 206.257 127.79 205.547 129.118 205.226Z" fill="#DB9C7F"/>
<path d="M139.397 210.811L139.338 214.765L136.455 218.963" stroke="black" stroke-miterlimit="10" stroke-linecap="round"/>
<path d="M137.35 210.842L137.125 214.918L134.69 218.638" stroke="black" stroke-miterlimit="10" stroke-linecap="round"/>
<path d="M135.272 210.948L134.98 214.381L132.902 217.83" stroke="black" stroke-miterlimit="10" stroke-linecap="round"/>
<path d="M129.345 210.034C129.345 210.034 129.816 213.572 128.674 214.348C127.533 215.125 125.692 207.808 126.958 207.715C128.813 207.578 129.345 210.034 129.345 210.034Z" fill="#DB9C7F"/>
<path d="M130.901 209.522C130.901 209.522 129.766 209.704 129.441 211.038" stroke="black" stroke-miterlimit="10" stroke-linecap="round"/>
<path d="M108.872 192.4L114.389 185.204C119.434 178.527 116.072 171.469 116.072 171.469" stroke="black" stroke-miterlimit="10" stroke-linecap="round"/>
<path d="M121.778 192.006C121.778 192.006 118.527 187.496 117.788 189.492" stroke="black" stroke-miterlimit="10" stroke-linecap="round"/>
<path d="M123.033 154.478L122.097 154.281" stroke="white" stroke-miterlimit="10"/>
<path d="M103.468 153.606L96.5353 157.236C96.5353 157.236 96.3531 165.468 104.139 171.725L107.635 168.326L111.158 171.852C111.158 171.852 112.498 170.799 112.897 166.019L112.268 160.217L103.468 153.606Z" fill="white"/>
<path d="M112.269 160.217L103.468 153.606L96.5352 157.236" stroke="black" stroke-miterlimit="10" stroke-linecap="round" stroke-linejoin="round"/>
<path d="M101.455 154.854C101.455 154.854 103.599 167.394 106.772 168.282C109.945 169.17 111.925 162.9 111.925 162.9L105.78 145.784L101.455 154.854Z" fill="#DB9C7F"/>
<path d="M113.103 164.408L113.141 165.967C113.17 165.983 113.078 166.448 111.533 166.625C104.745 166.423 104.208 158.781 103.656 152.701C103.656 152.701 113.73 163.194 113.103 164.408Z" fill="black"/>
<path d="M122.603 147.361C122.603 147.361 124.346 163.255 115.028 165.837C105.71 168.419 103.478 153.216 103.799 147.958C104.121 142.699 106.744 140.103 113.275 139.867C122.937 139.519 122.603 147.361 122.603 147.361Z" fill="#DB9C7F"/>
<path d="M108.653 143.053C108.653 143.053 108.478 146.394 106.262 147.061L104.669 151.973C104.669 151.973 103.334 149.79 101.867 149.017C101.867 149.017 100.247 142.53 102.287 139.952C104.326 137.374 107.161 136.068 114.02 136.638C119.24 137.073 122.295 140.778 123.292 142.663C123.616 143.274 124.4 144.992 122.566 146.662C122.566 146.662 122.59 145.398 121.519 143.92C121.519 143.92 119.019 149.032 108.653 143.053Z" fill="black"/>
<path d="M99.7191 152.816C100.294 154.913 101.943 156.299 103.402 155.912C104.861 155.525 105.579 153.511 105.004 151.414C104.43 149.317 102.781 147.93 101.321 148.317C99.8616 148.705 99.1442 150.719 99.7191 152.816Z" fill="#DB9C7F"/>
<path d="M113.154 153.516C113.127 154.056 113.384 154.508 113.727 154.526C114.071 154.543 114.37 154.119 114.397 153.579C114.423 153.039 114.167 152.587 113.823 152.569C113.481 152.552 113.181 152.976 113.154 153.516Z" fill="black"/>
<path d="M120.341 153.96C120.288 154.466 120.496 154.904 120.804 154.936C121.113 154.969 121.406 154.586 121.459 154.079C121.512 153.573 121.305 153.136 120.996 153.103C120.687 153.071 120.394 153.454 120.341 153.96Z" fill="black"/>
<path d="M111.102 149.238C111.102 149.238 113.57 149.767 113.735 147.425" stroke="black" stroke-miterlimit="10" stroke-linecap="round"/>
<path d="M119.465 149.046C119.465 149.046 120.094 151.223 121.949 149.962" stroke="black" stroke-miterlimit="10" stroke-linecap="round"/>
<path d="M112.723 162.223C112.723 162.223 111.909 158.906 109.384 160.808L112.723 162.223Z" fill="black"/>
<path d="M101.184 150.99C101.184 150.99 102.825 149.577 103.722 152.16C103.722 152.16 102.763 153.179 103.368 153.978C103.368 153.978 102.423 154.192 101.957 153.358" stroke="black" stroke-miterlimit="10" stroke-linecap="round" stroke-linejoin="round"/>
<path d="M101.895 151.978C101.895 151.978 101.986 151.404 102.623 150.749" stroke="black" stroke-miterlimit="10" stroke-linecap="round" stroke-linejoin="round"/>
<path d="M118.916 153.878C118.916 155.413 119.859 156.658 121.023 156.658C122.186 156.658 123.129 155.413 123.129 153.878C123.129 152.343 122.186 151.099 121.023 151.099C119.859 151.099 118.916 152.343 118.916 153.878Z" stroke="white" stroke-miterlimit="10"/>
<path d="M111.033 153.498C111.033 155.125 112.233 156.444 113.714 156.444C115.195 156.444 116.395 155.125 116.395 153.498C116.395 151.872 115.195 150.553 113.714 150.553C112.233 150.552 111.033 151.872 111.033 153.498Z" stroke="white" stroke-miterlimit="10"/>
<path d="M119.011 154.683C119.011 154.683 118.359 151.915 116.244 154.487" stroke="white" stroke-miterlimit="10"/>
<path d="M111.089 152.384L104.858 150.979" stroke="white" stroke-miterlimit="10"/>
<path d="M119.272 155.908C119.581 156.3 119.645 156.766 119.489 157.271C119.335 157.77 118.828 158.073 118.313 158.062C118.075 158.058 117.846 157.993 117.621 157.923C117.522 157.892 117.327 157.786 117.221 157.833C116.707 158.06 116.109 157.612 116.28 157.261" stroke="black" stroke-miterlimit="10" stroke-linecap="round"/>
</svg>
