<svg width="17" height="20" viewBox="0 0 17 20" fill="none" xmlns="http://www.w3.org/2000/svg">
<path fill-rule="evenodd" clip-rule="evenodd" d="M8.3747 0C10.6307 0 12.6447 1.433 13.3837 3.567C13.5197 3.958 13.3117 4.385 12.9197 4.521C12.5287 4.658 12.1017 4.449 11.9657 4.057C11.4367 2.528 9.9917 1.5 8.3717 1.5H8.3577C6.2657 1.5 4.5617 3.194 4.5527 5.284L4.552 6.626L12.184 6.6267C14.688 6.6267 16.726 8.6647 16.726 11.1697V15.4577C16.726 17.9627 14.688 20.0007 12.184 20.0007H4.542C2.037 20.0007 0 17.9627 0 15.4577V11.1697C0 9.18631 1.277 7.49568 3.05221 6.87761L3.0527 5.301C3.0657 2.363 5.4417 0 8.3547 0H8.3747ZM12.184 8.1267H4.542C2.864 8.1267 1.5 9.4917 1.5 11.1697V15.4577C1.5 17.1357 2.864 18.5007 4.542 18.5007H12.184C13.861 18.5007 15.226 17.1357 15.226 15.4577V11.1697C15.226 9.4917 13.861 8.1267 12.184 8.1267ZM8.3633 11.4525C8.7773 11.4525 9.1133 11.7885 9.1133 12.2025V14.4245C9.1133 14.8385 8.7773 15.1745 8.3633 15.1745C7.9493 15.1745 7.6133 14.8385 7.6133 14.4245V12.2025C7.6133 11.7885 7.9493 11.4525 8.3633 11.4525Z" fill="black"/>
</svg>
