<svg width="28" height="28" viewBox="0 0 28 28" fill="none" xmlns="http://www.w3.org/2000/svg">
<path d="M0 5C0 2.23858 2.23858 0 5 0H23C25.7614 0 28 2.23858 28 5V23C28 25.7614 25.7614 28 23 28H5C2.23858 28 0 25.7614 0 23V5Z" fill="#FFE4F2"/>
<path d="M13.7989 10.5507L8.93392 15.9745V21.8284C8.93392 21.98 8.9784 22.1253 9.05758 22.2325C9.13676 22.3397 9.24414 22.3999 9.35611 22.3999L12.313 22.3895C12.4246 22.3888 12.5315 22.3282 12.6102 22.2212C12.6889 22.1141 12.7331 21.9691 12.7331 21.8181V18.3995C12.7331 18.2479 12.7776 18.1025 12.8568 17.9954C12.9359 17.8882 13.0433 17.828 13.1553 17.828H14.8441C14.956 17.828 15.0634 17.8882 15.1426 17.9954C15.2218 18.1025 15.2662 18.2479 15.2662 18.3995V21.8156C15.2661 21.8908 15.2769 21.9653 15.298 22.0348C15.3191 22.1043 15.3502 22.1676 15.3894 22.2208C15.4287 22.2741 15.4753 22.3163 15.5266 22.3452C15.5779 22.374 15.6329 22.3888 15.6884 22.3888L18.6443 22.3999C18.7563 22.3999 18.8636 22.3397 18.9428 22.2325C19.022 22.1253 19.0665 21.98 19.0665 21.8284V15.9706L14.2026 10.5507C14.1454 10.4883 14.0742 10.4543 14.0007 10.4543C13.9273 10.4543 13.8561 10.4883 13.7989 10.5507ZM21.4835 14.2372L19.2776 11.7759V6.82852C19.2776 6.71484 19.2442 6.60582 19.1848 6.52544C19.1254 6.44506 19.0449 6.3999 18.9609 6.3999H17.4833C17.3993 6.3999 17.3187 6.44506 17.2594 6.52544C17.2 6.60582 17.1666 6.71484 17.1666 6.82852V9.42203L14.8042 6.79102C14.5775 6.53848 14.293 6.40041 13.9994 6.40041C13.7058 6.40041 13.4213 6.53848 13.1946 6.79102L6.51531 14.2372C6.48324 14.2731 6.45671 14.3172 6.43724 14.3669C6.41776 14.4167 6.40572 14.4711 6.4018 14.5272C6.39788 14.5832 6.40216 14.6398 6.41439 14.6936C6.42662 14.7474 6.44657 14.7975 6.47309 14.8408L7.14595 15.9481C7.1724 15.9916 7.20493 16.0277 7.24168 16.0542C7.27843 16.0807 7.31868 16.0971 7.36013 16.1025C7.40158 16.1079 7.4434 16.1022 7.48322 16.0857C7.52303 16.0692 7.56005 16.0422 7.59215 16.0063L13.7989 9.08627C13.8561 9.02388 13.9273 8.98986 14.0007 8.98986C14.0742 8.98986 14.1454 9.02388 14.2026 9.08627L20.4096 16.0063C20.4416 16.0422 20.4786 16.0692 20.5183 16.0858C20.5581 16.1023 20.5999 16.1081 20.6413 16.1028C20.6827 16.0975 20.7229 16.0812 20.7597 16.0549C20.7964 16.0285 20.829 15.9926 20.8555 15.9492L21.5284 14.8419C21.5549 14.7983 21.5747 14.748 21.5868 14.6939C21.5989 14.6399 21.603 14.5831 21.5988 14.5269C21.5946 14.4707 21.5823 14.4162 21.5625 14.3665C21.5427 14.3168 21.5159 14.2728 21.4835 14.2372Z" fill="#FF1C92"/>
</svg>
