<svg width="28" height="28" viewBox="0 0 28 28" fill="none" xmlns="http://www.w3.org/2000/svg">
<path d="M0 5C0 2.23858 2.23858 0 5 0H23C25.7614 0 28 2.23858 28 5V23C28 25.7614 25.7614 28 23 28H5C2.23858 28 0 25.7614 0 23V5Z" fill="black"/>
<path d="M15.909 16.7273C15.909 17.0286 15.6954 17.2727 15.4317 17.2727H12.5681C12.3044 17.2727 12.0908 17.0286 12.0908 16.7273V15.0909H6.36353V20C6.36353 20.8727 7.03171 21.6364 7.79534 21.6364H20.2044C20.9681 21.6364 21.6363 20.8727 21.6363 20V15.0909H15.909V16.7273ZM20.2044 9.63637H17.8181V8.00001C17.8181 7.12728 17.1499 6.36365 16.3863 6.36365H11.6135C10.8499 6.36365 10.1817 7.12728 10.1817 8.00001V9.63637H7.79534C7.03171 9.63637 6.36353 10.4 6.36353 11.2727V14H21.6363V11.2727C21.6363 10.4 20.9681 9.63637 20.2044 9.63637ZM15.909 9.63637H12.0908V8.54547H15.909V9.63637Z" fill="white"/>
</svg>
