<svg width="24" height="24" viewBox="0 0 24 24" fill="none" xmlns="http://www.w3.org/2000/svg">
<path fill-rule="evenodd" clip-rule="evenodd" d="M10.6889 12.0002C10.6889 13.0232 9.85986 13.8522 8.83686 13.8522C7.81386 13.8522 6.98486 13.0232 6.98486 12.0002C6.98486 10.9772 7.81386 10.1482 8.83686 10.1482H8.83986C9.86186 10.1492 10.6889 10.9782 10.6889 12.0002Z" stroke="black" stroke-width="1.5" stroke-linecap="round" stroke-linejoin="round"/>
<path d="M10.6919 12H17.0099V13.852" stroke="black" stroke-width="1.5" stroke-linecap="round" stroke-linejoin="round"/>
<path d="M14.1821 13.852V12" stroke="black" stroke-width="1.5" stroke-linecap="round" stroke-linejoin="round"/>
<path fill-rule="evenodd" clip-rule="evenodd" d="M2.75 12C2.75 5.063 5.063 2.75 12 2.75C18.937 2.75 21.25 5.063 21.25 12C21.25 18.937 18.937 21.25 12 21.25C5.063 21.25 2.75 18.937 2.75 12Z" stroke="black" stroke-width="1.5" stroke-linecap="round" stroke-linejoin="round"/>
</svg>
